# xmcd
#
# Track frame offsets:
#	150
#	18875
#	35070
#	54088
#	62329
#	72994
#	82052
#	93028
#	103355
#	124791
#	144007
#	162406
#	178128
#	192883
#	207125
#
# Disc length: 2914 seconds
#
# Revision: 0
# Processed by: cddbd v1.5.2PL0 Copyright (c) Steve Scherf et al.
# Submitted via: EasyCDDAExtractor 15.2.1.1
#
DISCID=c60b600f
DTITLE=Фэруэз Урманшин - Кисерегез
DYEAR=2005
DGENRE=Ethnic
TTITLE0=Кисерегез
TTITLE1=Йылмай иркем
TTITLE2=Язмыш
TTITLE3=Бейеу
TTITLE4=Гармуным уйнай
TTITLE5=Сафия
TTITLE6=Ак стакан
TTITLE7=Бэхет кошом
TTITLE8=Hинен эсэн
TTITLE9=Кыз бала
TTITLE10=Йэнэм йылы тапмай
TTITLE11=Кынfырау сэскэ
TTITLE12=Ауыл урамынан баян утэ
TTITLE13=Вэfэзэ
TTITLE14=Енгейзэр
EXTD=
EXTT0=
EXTT1=
EXTT2=
EXTT3=
EXTT4=
EXTT5=
EXTT6=
EXTT7=
EXTT8=
EXTT9=
EXTT10=
EXTT11=
EXTT12=
EXTT13=
EXTT14=
PLAYORDER=
